<?xml version="1.0" encoding="UTF-8"?>
<svg width="100px" height="26px" viewBox="0 0 100 26" version="1.1" xmlns="http://www.w3.org/2000/svg" xmlns:xlink="http://www.w3.org/1999/xlink">
    <!-- Generator: Sketch 54.1 (76490) - https://sketchapp.com -->
    <title>hue-logo</title>
    <desc>Created with Sketch.</desc>
    <g id="Page-1" stroke="none" stroke-width="1" fill="none" fill-rule="evenodd">
        <g id="hue-logo" fill-rule="nonzero">
            <path d="M16.7177136,-6.95379321e-16 C16.5529855,-6.95379321e-16 16.3901364,-6.95379321e-16 16.2266609,0.00751611267 L16.2705049,8.53141422 L6.32606149,8.53141422 C7.02091255,5.72832946 8.44570277,3.15925526 10.4555391,1.08545194 C4.32552284,3.30145249 0,8.67234133 0,14.9489218 C0.0315013936,18.7752685 1.61998667,22.4237641 4.39943128,25.0537089 L10.6252779,25.0537089 C8.528821,22.9492047 7.04292102,20.3151093 6.32606149,17.4323706 L16.2705049,17.4323706 L16.2705049,25.0537089 L22.0247155,25.0537089 L22.0247155,0.772906919 C20.3026649,0.25878551 18.5148715,-0.00158709048 16.7177136,-6.95379321e-16 Z" id="Path" fill="#287DBD"></path>
            <path d="M23.7759697,1.45060974 L23.7759697,14.1334235 C25.5341138,14.2950199 26.928979,16.7947538 26.928979,19.8550643 C26.928979,22.1581265 26.1385345,24.1430066 24.997338,25.0537089 L28.4359596,25.0537089 C31.0048577,22.3162473 32.4344432,18.7029773 32.4339052,14.9489218 C32.4135291,9.15011137 29.0379755,3.887393 23.7759697,1.45060974 Z M25.5027966,9.0193352 C24.8318942,8.97963321 24.3188245,8.40585682 24.3540841,7.73470628 C24.3195374,7.06403236 24.8324084,6.49103741 25.5027966,6.45133004 C25.9718188,6.46511762 26.3853641,6.76263224 26.5475363,7.20294131 C26.4203125,6.9980439 26.1980282,6.87146206 25.9568951,6.86659526 L25.9424892,6.86659526 C26.0404434,6.93535103 26.0979269,7.04820645 26.0959432,7.16786611 C26.1091533,7.28863879 26.0521594,7.40633423 25.9492183,7.47086082 C25.8462773,7.53538741 25.7155083,7.53538741 25.6125672,7.47086082 C25.5096262,7.40633423 25.4526323,7.28863879 25.4658424,7.16786611 C25.4662881,7.1322449 25.4715555,7.0968481 25.481501,7.06264054 C25.3154728,7.22645184 25.2232205,7.45075151 25.2259531,7.68397252 C25.2031519,8.11172576 25.5299243,8.47766614 25.9575214,8.5032288 C26.2535485,8.49417823 26.5150271,8.30783148 26.620192,8.03096638 C26.528507,8.58331237 26.0622043,8.99577075 25.5027966,9.0193352 L25.5027966,9.0193352 Z" id="Shape" fill="#A585B9"></path>
            <path d="M46.6625328,25.0537089 C37.7684661,25.0537089 35.1578697,22.3103278 35.1578697,14.699011 L35.1578697,1.07104605 L41.7971025,1.07104605 L41.7971025,14.5223824 C41.7971025,18.5936101 43.1687931,19.4335356 47.1955505,19.4335356 L54.0934629,19.4335356 C58.3857895,19.4335356 59.4912844,18.5936101 59.4912844,14.5223824 L59.4912844,1.07104605 L66.0403241,1.07104605 L66.0403239,14.699011 C66.0409503,22.3103278 63.4297275,25.0537089 54.4473465,25.0537089 L46.6625328,25.0537089 Z" id="Path" fill="#287DBD"></path>
            <path d="M100,15.4957189 L100,7.61945922 C100,3.81380084 98.0971708,1.07104605 91.238718,1.07104605 L79.6451142,1.07104605 C71.1938719,1.07104605 68.759904,3.41607321 68.759904,10.407937 L68.759904,15.9385433 C68.759904,22.3103278 71.7243841,25.0537089 79.3350746,25.0537089 L96.9916759,25.0537089 L96.9916759,20.0536149 L79.3350746,20.0536149 C76.2378098,20.0536149 75.3527875,19.5224763 75.3527875,16.6018402 L75.3527875,15.4957189 L100,15.4957189 Z M75.3534139,9.96511271 C75.3534139,6.51333797 76.4181965,6.15945433 79.7340549,6.15945433 L90.706953,6.15945433 C92.6987229,6.15945433 93.4071165,6.5578083 93.4071165,8.15122419 L93.4071165,11.2484889 L75.3527875,11.2484889 L75.3534139,9.96511271 Z" id="Shape" fill="#287DBD"></path>
        </g>
    </g>
</svg>